<svg id="Layer_1" data-name="Layer 1" xmlns="http://www.w3.org/2000/svg" viewBox="0 0 400 400"><defs><style>.cls-1{fill:#fff;}</style></defs><path class="cls-1" d="M249.3,91.93l-.15,0v28.67h.15Z"/><path class="cls-1" d="M281.37,0C342.12,16,386.51,49.86,400,91.68V0Z"/><path class="cls-1" d="M281.59,400H400V308.85c-5,15.55-14.14,30.2-27.27,43.25C350.86,373.85,319,390.29,281.59,400Z"/><path class="cls-1" d="M119,0H0V92.5c4.85-16,14.17-31.17,27.68-44.6C49.52,26.18,81.61,9.72,119,0Z"/><path class="cls-1" d="M0,307.09V400H119C57.69,383.87,13,349.47,0,307.09Z"/><path class="cls-1" d="M249.38,275.38v32.56c29.33-6.55,48.17-18.2,51.73-27.92-4.71-8.64-39.25-31.48-99.7-31.79-.42,0-1.18,0-2,0-71.57,0-138-22.93-173.65-59.83C13.3,175.49,4.63,161.07,0,145.81v91.36H98.77V277.8C100,288.07,119,301,150.67,308v-32.6Z"/><path class="cls-1" d="M304.79,162.33h-3.05V123.22l0-.63c-.81-10.36-20-23.55-52.18-30.64v32.67H150.77v-4.05h-.15V92.15C121.52,98.72,102.84,110.3,99.3,120c4.71,8.64,39.24,31.48,99.69,31.79l1.82,0c71.75,0,138.24,22.93,173.83,59.84,12.11,12.54,20.64,26.51,25.36,41.28v-90.4H304.8Z"/><path class="cls-1" d="M150.7,120.57V92.13l-.08,0v28.42Z"/><path class="cls-1" d="M150.63,120.55v4h98.75V91.93l-.15,0v0l-.08,0v28.64H249"/><path class="cls-1" d="M249.3,91.93l.08,0v0h-.08Z"/></svg>