<svg width="500" height="700" fill="none" xmlns="http://www.w3.org/2000/svg"><path d="M100 0h100v100H100V0ZM200 0h50c27.614 0 50 22.386 50 50s-22.386 50-50 50h-50V0ZM0 100C0 44.772 44.772 0 100 0v100H0ZM0 100h100v100H0V100ZM0 200h100v100C44.772 300 0 255.228 0 200ZM100 200h100v100H100V200ZM100 400h100v100H100V400ZM0 450c0-27.614 22.386-50 50-50h50v100H50c-27.614 0-50-22.386-50-50ZM150 100h-50v100h50c-27.614 0-50-22.386-50-50s22.386-50 50-50ZM200 300h-50c27.614 0 50 22.386 50 50s-22.386 50-50 50h50V300Z" fill="#30475E"/><path d="M400 250c0-27.614 22.386-50 50-50s50 22.386 50 50v50H400v-50ZM400 300h100v100H400V300ZM400 400h100v100H400V400ZM400 500h100v100H400V500ZM400 600h100v50c0 27.614-22.386 50-50 50s-50-22.386-50-50v-50ZM300 400h100v100H300V400ZM300 342v58h100v-58c0 27.614-22.386 50-50 50s-50-22.386-50-50ZM350 500h-50v50c0-27.614 22.386-50 50-50ZM400 550c0-27.614-22.386-50-50-50h50v50ZM200 500h100v100H200V500ZM200 400h100v100H200V400ZM200 600h100v50c0 27.614-22.386 50-50 50s-50-22.386-50-50v-50Z" fill="#F05454"/><path d="M200 200c55.228 0 100 44.772 100 100H200V200ZM200 300h100v100H200V300ZM200 400h100c0 55.228-44.772 100-100 100V400Z" fill="#302645"/></svg>