<svg width="500" height="700" viewBox="0 0 500 700" fill="none" xmlns="http://www.w3.org/2000/svg">
<path d="M100 0H200V100H100V0Z" fill="#30475E"/>
<path d="M200 0H250C277.614 0 300 22.3858 300 50C300 77.6142 277.614 100 250 100H200V0Z" fill="#30475E"/>
<path d="M0 100C0 44.7715 44.7715 0 100 0V100H0Z" fill="#30475E"/>
<path d="M0 100H100V200H0V100Z" fill="#30475E"/>
<path d="M0 200H100V300C44.7715 300 0 255.228 0 200Z" fill="#30475E"/>
<path d="M100 200H200V300H100V200Z" fill="#30475E"/>
<path d="M100 400H200V500H100V400Z" fill="#30475E"/>
<path d="M0 450C0 422.386 22.3858 400 50 400H100V500H50C22.3858 500 0 477.614 0 450Z" fill="#30475E"/>
<path d="M150 100H100V150V200H150C122.386 200 100 177.614 100 150C100 122.386 122.386 100 150 100Z" fill="#30475E"/>
<path d="M200 300H150C177.614 300 200 322.386 200 350C200 377.614 177.614 400 150 400H200V350V300Z" fill="#30475E"/>
<path d="M400 250C400 222.386 422.386 200 450 200C477.614 200 500 222.386 500 250V300H400V250Z" fill="#F05454"/>
<path d="M400 300H500V400H400V300Z" fill="#F05454"/>
<path d="M400 400H500V500H400V400Z" fill="#F05454"/>
<path d="M400 500H500V600H400V500Z" fill="#F05454"/>
<path d="M400 600H500V650C500 677.614 477.614 700 450 700C422.386 700 400 677.614 400 650V600Z" fill="#F05454"/>
<path d="M300 400H400V500H300V400Z" fill="#F05454"/>
<path d="M300 342V400H400V342C400 369.614 377.614 392 350 392C322.386 392 300 369.614 300 342Z" fill="#F05454"/>
<path d="M350 500H300V550C300 522.386 322.386 500 350 500Z" fill="#F05454"/>
<path d="M400 550C400 522.386 377.614 500 350 500H400V550Z" fill="#F05454"/>
<path d="M200 500H300V600H200V500Z" fill="#F05454"/>
<path d="M200 400H300V500H200V400Z" fill="#F05454"/>
<path d="M200 600H300V650C300 677.614 277.614 700 250 700C222.386 700 200 677.614 200 650V600Z" fill="#F05454"/>
<path d="M200 200C255.228 200 300 244.772 300 300H200V200Z" fill="#302645"/>
<path d="M200 300H300V400H200V300Z" fill="#302645"/>
<path d="M200 400H300C300 455.228 255.228 500 200 500V400Z" fill="#302645"/>
</svg>
